<?xml version="1.0" encoding="utf-8"?>
<!-- Generator: Adobe Illustrator 28.0.0, SVG Export Plug-In . SVG Version: 6.00 Build 0)  -->
<svg version="1.1" id="logistics" xmlns="http://www.w3.org/2000/svg" xmlns:xlink="http://www.w3.org/1999/xlink" x="0px" y="0px"
	 viewBox="0 0 548.3 592.2" style="enable-background:new 0 0 548.3 592.2;" xml:space="preserve">
<style type="text/css">
	.st0{opacity:0.18;fill:#36ADC1;enable-background:new    ;}
	.st1{fill:#599B73;}
	.st2{fill:#68E1FD;}
	.st3{fill:url(#SVGID_1_);}
	.st4{opacity:0.18;fill:#1D2741;enable-background:new    ;}
	.st5{fill:#C6C189;}
	.st6{fill:url(#SVGID_00000010277349333234752690000007000161703666408631_);}
	.st7{fill:url(#SVGID_00000075846009216054172400000004384808265195250597_);}
	.st8{fill:url(#SVGID_00000105395446134273784810000016535935545554872478_);}
	.st9{fill:url(#SVGID_00000016066116818210223250000007922598830032233643_);}
	.st10{fill:#C6C188;}
	.st11{fill:url(#SVGID_00000168075740381583037210000016438264769245569717_);}
	.st12{fill:url(#SVGID_00000088811113646457635730000013357646425777813933_);}
	.st13{fill:url(#SVGID_00000127011053718239306570000017401160189566084008_);}
	.st14{fill:url(#SVGID_00000106137463755881868450000002322009058550011283_);}
	.st15{fill:#BAB586;}
	.st16{fill:url(#SVGID_00000000198559759076157970000009008100338671615899_);}
	.st17{fill:url(#SVGID_00000152973623879993428670000008794084304430186144_);}
	.st18{fill:url(#SVGID_00000107567829501764077770000007888081117533020315_);}
	.st19{fill:url(#SVGID_00000124131416665799070210000004012410646963436208_);}
	.st20{fill:url(#SVGID_00000034811130088755129000000001208042780133016738_);}
	.st21{fill:url(#SVGID_00000075133472444406166040000011170765248524450491_);}
	.st22{fill:url(#SVGID_00000038381309218722006630000002711241551743473309_);}
	.st23{fill:url(#SVGID_00000092428608849229276880000015786263576958185655_);}
	.st24{opacity:0.2;fill:url(#SVGID_00000003826800446793908350000006287045492489472641_);enable-background:new    ;}
	.st25{opacity:0.2;fill:#91861C;enable-background:new    ;}
	.st26{fill:url(#SVGID_00000160175348996868599640000003033596120000297389_);}
	.st27{fill:url(#SVGID_00000029014861092567696320000014691894984516678834_);}
	.st28{fill:url(#SVGID_00000002361959552108816850000015703265972736801973_);}
	.st29{fill:url(#SVGID_00000019667436664012096460000005073403973240527275_);}
	.st30{fill:url(#SVGID_00000121238358556838475620000017864624185059127205_);}
	.st31{fill:url(#SVGID_00000045617116902802641900000000220323230139682226_);}
	.st32{fill:url(#SVGID_00000163031420323517583790000013733210004184354952_);}
	.st33{fill:url(#SVGID_00000109010894687566381610000012038119586605226638_);}
	.st34{fill:url(#SVGID_00000141427112083399510390000004262970028033168061_);}
	.st35{fill:url(#SVGID_00000090977722783895540160000005592203029701304763_);}
	.st36{fill:url(#SVGID_00000163037332905223120800000009238497855853348516_);}
	.st37{fill:url(#SVGID_00000179615713214657939200000008644931629008358807_);}
	.st38{fill:url(#SVGID_00000038413779922967076060000001400619671577165453_);}
	.st39{fill:url(#SVGID_00000173878920587070451570000009048081574859634857_);}
	.st40{fill:url(#SVGID_00000154387355431116902810000011868808941470009244_);}
	.st41{opacity:0.2;fill:#4C4715;enable-background:new    ;}
	.st42{opacity:0.2;fill:url(#SVGID_00000056400380126703355970000007764635513983126463_);enable-background:new    ;}
	.st43{opacity:0.2;fill:url(#SVGID_00000088813673097525405070000014609520860774842526_);enable-background:new    ;}
</style>
<path class="st0" d="M340.3,584.2c117.3-17,188.5-100.1,204.5-199c9.9-60.8-1.1-127.5-34.9-188.6C420.9,36.1,196.3,32.3,196.3,32.3
	C67,25.9,92.5,244.3,99.9,291.4c4,24.9-21.2,58.2-47.3,93.9c-23.1,31.6-47.1,65.2-52.1,96.5C-10.3,548.3,150.9,611.7,340.3,584.2z"
	/>
<path class="st1" d="M385.4,387h164.4c-4.3-7.8-13.6-5.4-23.5-5.6c-1.9-5.9-7-5.7-18.1-3.9c14-12.8,9.7-25.4-14.8-17.2
	c28-38.1-15.4-46.7-21.8-47.5c-8.1-1-45.1,5-25.5,44.6c-23.8-9.9-30.3,1.8-12.3,22.3C416.7,380.5,396.1,384.3,385.4,387z M55.6,387
	h287.2c-18.6-4.3-57.2-9.5-74.6-9.8c-3.2-10.2-12.2-10-31.6-6.9c24.5-22.4,16.9-44.4-25.9-30c48.9-66.6-26.9-81.8-38.1-83.1
	c-14.1-1.7-78.9,8.7-44.6,78c-41.6-17.3-53,3.1-21.6,39.1C76.4,375.7,65.7,379.2,55.6,387z"/>
<path class="st2" d="M343.8,585.7c117.3-17,188.5-100.1,204.5-199H56.1C33,418.3,9.1,451.8,4,483.1
	C-6.8,549.7,154.4,613.1,343.8,585.7z"/>
<linearGradient id="SVGID_1_" gradientUnits="userSpaceOnUse" x1="210.1258" y1="330.646" x2="771.3558" y2="-236.304" gradientTransform="matrix(-1 0 0 -1 670.4122 590.23)">
	<stop  offset="0" style="stop-color:#000000;stop-opacity:0"/>
	<stop  offset="0.2" style="stop-color:#09080C;stop-opacity:0.14"/>
	<stop  offset="0.57" style="stop-color:#201F2B;stop-opacity:0.5"/>
	<stop  offset="0.99" style="stop-color:#3F3D56"/>
</linearGradient>
<path class="st3" d="M343.8,585.6c117.3-17,188.5-100.1,204.5-199H56.1C33,418.3,9.1,451.8,4,483.1
	C-6.8,549.7,154.4,613.1,343.8,585.6z"/>
<path class="st4" d="M209.4,500.5c-5.9-0.1-13-0.9-15.7-6.2c-1.3-2.6-1.2-5.7-1.6-8.7c-4-26.3-50-25.1-57.6-50.6
	c-0.6-2.2-0.9-4.9,0.7-6.6c1.4-1.5,3.6-1.8,5.6-1.9l66.9-4.7c2.7-9.9-7.9-18.3-17.6-21.4c-43.7-14-93.3,14.8-136.3-1.5
	c-2.3-0.9-4.7-2-5.8-4.2c-3.1-6.3,6.8-10.7,13.9-10.8l169.2-2.7c3.6-0.1,7.2-0.1,10.6,1c5.2,1.7,9.2,5.9,13,9.9
	c16,17.1,32.6,34.5,53.6,45c38.5,19.2,84.5,12.1,126.8,20.2c12.2,2.4,27.2,10.8,24.2,22.8c-9.6,37.8-80.9,23.6-106.5,23.1
	L209.4,500.5z"/>
<path class="st5" d="M171.8,284.7h71.5v49.6h-71.5V284.7z M166.9,334.2h71.5v55.2h-71.5L166.9,334.2z"/>
<linearGradient id="SVGID_00000029761695624280877980000014105086464384816521_" gradientUnits="userSpaceOnUse" x1="201.68" y1="304.29" x2="214.56" y2="304.29" gradientTransform="matrix(1 0 0 -1 0 594)">
	<stop  offset="0" style="stop-color:#183866"/>
	<stop  offset="1" style="stop-color:#1A7FC1"/>
</linearGradient>
<path style="fill:url(#SVGID_00000029761695624280877980000014105086464384816521_);" d="M201.7,284.7h12.9v10.1h-12.9V284.7z"/>
<linearGradient id="SVGID_00000032647358153439172600000011824487997526931104_" gradientUnits="userSpaceOnUse" x1="194.68" y1="254.92" x2="207.56" y2="254.92" gradientTransform="matrix(1 0 0 -1 0 594)">
	<stop  offset="0" style="stop-color:#183866"/>
	<stop  offset="1" style="stop-color:#1A7FC1"/>
</linearGradient>
<path style="fill:url(#SVGID_00000032647358153439172600000011824487997526931104_);" d="M194.7,334h12.9v10.1h-12.9V334z"/>
<linearGradient id="SVGID_00000050633240581407295350000017972954826024582579_" gradientUnits="userSpaceOnUse" x1="223.9415" y1="283.0835" x2="205.1815" y2="278.8135" gradientTransform="matrix(1 0 0 -1 0 594)">
	<stop  offset="0" style="stop-color:#68E1FD"/>
	<stop  offset="1" style="stop-color:#69B9EB"/>
</linearGradient>
<path style="fill:url(#SVGID_00000050633240581407295350000017972954826024582579_);" d="M208.1,294.8h1v39.3h-1V294.8z"/>
<linearGradient id="SVGID_00000008122766624074658070000015386424369080980878_" gradientUnits="userSpaceOnUse" x1="217.011" y1="233.7156" x2="198.251" y2="229.4456" gradientTransform="matrix(1 0 0 -1 0 594)">
	<stop  offset="0" style="stop-color:#68E1FD"/>
	<stop  offset="1" style="stop-color:#69B9EB"/>
</linearGradient>
<path style="fill:url(#SVGID_00000008122766624074658070000015386424369080980878_);" d="M201.2,344.1h1v39.3h-1V344.1z"/>
<path class="st2" d="M172.8,159.3H258v59.1h-85.2L172.8,159.3z"/>
<path class="st10" d="M172.8,159.3H258v59.1h-85.2L172.8,159.3z"/>
<path class="st2" d="M166.9,218.4H252v65.8h-85.2V218.4z"/>
<path class="st10" d="M166.9,218.4H252v65.8h-85.2V218.4z"/>
<linearGradient id="SVGID_00000060744153325722277770000017845881757461926286_" gradientUnits="userSpaceOnUse" x1="219.1169" y1="794.44" x2="211.397" y2="-121.79" gradientTransform="matrix(1 0 0 -1 0 594)">
	<stop  offset="9.000000e-02" style="stop-color:#68E1FD"/>
	<stop  offset="0.2" style="stop-color:#65D5F1"/>
	<stop  offset="0.4" style="stop-color:#5DB7D2"/>
	<stop  offset="0.66" style="stop-color:#51859F"/>
	<stop  offset="0.97" style="stop-color:#404059"/>
	<stop  offset="0.99" style="stop-color:#3F3D56"/>
</linearGradient>
<path style="fill:url(#SVGID_00000060744153325722277770000017845881757461926286_);" d="M208.4,159.3h15.4v12h-15.4V159.3z"/>
<linearGradient id="SVGID_00000124129619831273527620000010593121854354094978_" gradientUnits="userSpaceOnUse" x1="211.2732" y1="794.5" x2="203.5533" y2="-121.72" gradientTransform="matrix(1 0 0 -1 0 594)">
	<stop  offset="9.000000e-02" style="stop-color:#68E1FD"/>
	<stop  offset="0.2" style="stop-color:#65D5F1"/>
	<stop  offset="0.4" style="stop-color:#5DB7D2"/>
	<stop  offset="0.66" style="stop-color:#51859F"/>
	<stop  offset="0.97" style="stop-color:#404059"/>
	<stop  offset="0.99" style="stop-color:#3F3D56"/>
</linearGradient>
<path style="fill:url(#SVGID_00000124129619831273527620000010593121854354094978_);" d="M200,218.2h15.4v12H200V218.2z"/>
<linearGradient id="SVGID_00000115514707786311177720000014107646717043592084_" gradientUnits="userSpaceOnUse" x1="234.8907" y1="403.4068" x2="212.5307" y2="398.3168" gradientTransform="matrix(1 0 0 -1 0 594)">
	<stop  offset="0" style="stop-color:#68E1FD"/>
	<stop  offset="1" style="stop-color:#69B9EB"/>
</linearGradient>
<path style="fill:url(#SVGID_00000115514707786311177720000014107646717043592084_);" d="M216,171.3h1.2v46.8H216V171.3z"/>
<linearGradient id="SVGID_00000041263364998941796430000010099435956423101066_" gradientUnits="userSpaceOnUse" x1="226.6203" y1="344.5686" x2="204.2703" y2="339.4786" gradientTransform="matrix(1 0 0 -1 0 594)">
	<stop  offset="0" style="stop-color:#68E1FD"/>
	<stop  offset="1" style="stop-color:#69B9EB"/>
</linearGradient>
<path style="fill:url(#SVGID_00000041263364998941796430000010099435956423101066_);" d="M207.8,230.2h1.2V277h-1.2V230.2z"/>
<path class="st2" d="M79.3,244.2h97.2v67.4H79.3V244.2z"/>
<path class="st10" d="M176.4,284.2v27.3H79.3v-67.4h87.6v40.1H176.4L176.4,284.2z"/>
<path class="st15" d="M166.9,244.1h9.5v40.1h-9.5V244.1z"/>
<path class="st2" d="M53.8,311.5H151v75.1H53.8V311.5z"/>
<path class="st5" d="M53.8,311.5H151v75.1H53.8V311.5z"/>
<linearGradient id="SVGID_00000127005649797938034340000017603252819833686426_" gradientUnits="userSpaceOnUse" x1="132.405" y1="795.17" x2="124.685" y2="-121.06" gradientTransform="matrix(1 0 0 -1 0 594)">
	<stop  offset="9.000000e-02" style="stop-color:#68E1FD"/>
	<stop  offset="0.2" style="stop-color:#65D5F1"/>
	<stop  offset="0.4" style="stop-color:#5DB7D2"/>
	<stop  offset="0.66" style="stop-color:#51859F"/>
	<stop  offset="0.97" style="stop-color:#404059"/>
	<stop  offset="0.99" style="stop-color:#3F3D56"/>
</linearGradient>
<path style="fill:url(#SVGID_00000127005649797938034340000017603252819833686426_);" d="M119.8,244.2h17.5v13.7h-17.5L119.8,244.2z
	"/>
<linearGradient id="SVGID_00000003810532216013218140000003589864757230502303_" gradientUnits="userSpaceOnUse" x1="104.7924" y1="795.4" x2="97.0724" y2="-120.82" gradientTransform="matrix(1 0 0 -1 0 594)">
	<stop  offset="9.000000e-02" style="stop-color:#68E1FD"/>
	<stop  offset="0.2" style="stop-color:#65D5F1"/>
	<stop  offset="0.4" style="stop-color:#5DB7D2"/>
	<stop  offset="0.66" style="stop-color:#51859F"/>
	<stop  offset="0.97" style="stop-color:#404059"/>
	<stop  offset="0.99" style="stop-color:#3F3D56"/>
</linearGradient>
<path style="fill:url(#SVGID_00000003810532216013218140000003589864757230502303_);" d="M91.7,311.3h17.5V325H91.7V311.3z"/>
<linearGradient id="SVGID_00000065794622200022617990000003124325924217368231_" gradientUnits="userSpaceOnUse" x1="150.1007" y1="314.1768" x2="124.6007" y2="308.3769" gradientTransform="matrix(1 0 0 -1 0 594)">
	<stop  offset="0" style="stop-color:#68E1FD"/>
	<stop  offset="1" style="stop-color:#69B9EB"/>
</linearGradient>
<path style="fill:url(#SVGID_00000065794622200022617990000003124325924217368231_);" d="M128.6,257.9h1.4v53.4h-1.4V257.9z"/>
<linearGradient id="SVGID_00000103226443362888596340000004153362096852870019_" gradientUnits="userSpaceOnUse" x1="122.0011" y1="247.0751" x2="96.5011" y2="241.2651" gradientTransform="matrix(1 0 0 -1 0 594)">
	<stop  offset="0" style="stop-color:#68E1FD"/>
	<stop  offset="1" style="stop-color:#69B9EB"/>
</linearGradient>
<path style="fill:url(#SVGID_00000103226443362888596340000004153362096852870019_);" d="M100.5,325h1.3v53.4h-1.3V325z"/>
<path class="st2" d="M74.6,101.5h97.2v67.4H74.6V101.5z"/>
<path class="st10" d="M74.6,101.5h97.2v67.4H74.6V101.5z"/>
<path class="st2" d="M67.9,168.8h97.2v75.1H67.9V168.8z"/>
<path class="st10" d="M67.9,168.8h97.2v75.1H67.9V168.8z"/>
<linearGradient id="SVGID_00000116214085076608576390000003842803809137196952_" gradientUnits="userSpaceOnUse" x1="126.583" y1="795.22" x2="118.8631" y2="-121.01" gradientTransform="matrix(1 0 0 -1 0 594)">
	<stop  offset="9.000000e-02" style="stop-color:#68E1FD"/>
	<stop  offset="0.2" style="stop-color:#65D5F1"/>
	<stop  offset="0.4" style="stop-color:#5DB7D2"/>
	<stop  offset="0.66" style="stop-color:#51859F"/>
	<stop  offset="0.97" style="stop-color:#404059"/>
	<stop  offset="0.99" style="stop-color:#3F3D56"/>
</linearGradient>
<path style="fill:url(#SVGID_00000116214085076608576390000003842803809137196952_);" d="M115.2,101.5h17.5v13.7h-17.5L115.2,101.5z
	"/>
<linearGradient id="SVGID_00000066479076845399482740000013560545690072424639_" gradientUnits="userSpaceOnUse" x1="117.6249" y1="795.29" x2="109.9149" y2="-120.93" gradientTransform="matrix(1 0 0 -1 0 594)">
	<stop  offset="9.000000e-02" style="stop-color:#68E1FD"/>
	<stop  offset="0.2" style="stop-color:#65D5F1"/>
	<stop  offset="0.4" style="stop-color:#5DB7D2"/>
	<stop  offset="0.66" style="stop-color:#51859F"/>
	<stop  offset="0.97" style="stop-color:#404059"/>
	<stop  offset="0.99" style="stop-color:#3F3D56"/>
</linearGradient>
<path style="fill:url(#SVGID_00000066479076845399482740000013560545690072424639_);" d="M105.7,168.6h17.5v13.7h-17.5V168.6z"/>
<linearGradient id="SVGID_00000159472005408175850440000002727856887576255365_" gradientUnits="userSpaceOnUse" x1="145.4785" y1="456.8867" x2="119.9785" y2="451.0768" gradientTransform="matrix(1 0 0 -1 0 594)">
	<stop  offset="0" style="stop-color:#68E1FD"/>
	<stop  offset="1" style="stop-color:#69B9EB"/>
</linearGradient>
<path style="fill:url(#SVGID_00000159472005408175850440000002727856887576255365_);" d="M124,115.2h1.3v53.4H124V115.2z"/>
<linearGradient id="SVGID_00000122689411482804104610000002642355693142952086_" gradientUnits="userSpaceOnUse" x1="136.0506" y1="389.7773" x2="110.5506" y2="383.9673" gradientTransform="matrix(1 0 0 -1 0 594)">
	<stop  offset="0" style="stop-color:#68E1FD"/>
	<stop  offset="1" style="stop-color:#69B9EB"/>
</linearGradient>
<path style="fill:url(#SVGID_00000122689411482804104610000002642355693142952086_);" d="M114.5,182.3h1.3v53.4h-1.3V182.3z"/>
<linearGradient id="SVGID_00000170258994534766024140000009570978942902155449_" gradientUnits="userSpaceOnUse" x1="290.1275" y1="376.0926" x2="267.8676" y2="353.6426" gradientTransform="matrix(1 0 0 -1 -118.66 590.23)">
	<stop  offset="0" style="stop-color:#183866"/>
	<stop  offset="1" style="stop-color:#1A7FC1"/>
</linearGradient>
<path style="opacity:0.2;fill:url(#SVGID_00000170258994534766024140000009570978942902155449_);enable-background:new    ;" d="
	M165,203.7v40.2c0,0-14.6-18.7-14-28.8S165,203.7,165,203.7z"/>
<path class="st25" d="M228.9,259.3l-0.7,25.3h-60.2v-65.8h5.9v-7.9l9,7.9l26,22.9l1.2,1L228.9,259.3L228.9,259.3z"/>
<path class="st2" d="M268.6,223.2h156.5v108.5H268.6V223.2z"/>
<path class="st10" d="M268.6,223.2h156.5v108.5H268.6V223.2z"/>
<path class="st2" d="M227.7,331.7h156.5v120.9H227.7V331.7z"/>
<path class="st10" d="M227.7,331.7h156.5v120.9H227.7V331.7z"/>
<linearGradient id="SVGID_00000020381678139027804770000004416190449241590417_" gradientUnits="userSpaceOnUse" x1="351.7586" y1="793.32" x2="344.0486" y2="-122.9" gradientTransform="matrix(1 0 0 -1 0 594)">
	<stop  offset="9.000000e-02" style="stop-color:#68E1FD"/>
	<stop  offset="0.2" style="stop-color:#65D5F1"/>
	<stop  offset="0.4" style="stop-color:#5DB7D2"/>
	<stop  offset="0.66" style="stop-color:#51859F"/>
	<stop  offset="0.97" style="stop-color:#404059"/>
	<stop  offset="0.99" style="stop-color:#3F3D56"/>
</linearGradient>
<path style="fill:url(#SVGID_00000020381678139027804770000004416190449241590417_);" d="M334,223.2h28.2v22.1H334V223.2z"/>
<linearGradient id="SVGID_00000181795332497817084120000008255275601254163122_" gradientUnits="userSpaceOnUse" x1="307.2771" y1="793.69" x2="299.5571" y2="-122.53" gradientTransform="matrix(1 0 0 -1 0 594)">
	<stop  offset="9.000000e-02" style="stop-color:#68E1FD"/>
	<stop  offset="0.2" style="stop-color:#65D5F1"/>
	<stop  offset="0.4" style="stop-color:#5DB7D2"/>
	<stop  offset="0.66" style="stop-color:#51859F"/>
	<stop  offset="0.97" style="stop-color:#404059"/>
	<stop  offset="0.99" style="stop-color:#3F3D56"/>
</linearGradient>
<path style="fill:url(#SVGID_00000181795332497817084120000008255275601254163122_);" d="M288.6,331.3h28.2v22.1h-28.2V331.3z"/>
<linearGradient id="SVGID_00000057866779204222909440000018327991197209446843_" gradientUnits="userSpaceOnUse" x1="382.7491" y1="313.3339" x2="341.6791" y2="303.9839" gradientTransform="matrix(1 0 0 -1 0 594)">
	<stop  offset="0" style="stop-color:#68E1FD"/>
	<stop  offset="1" style="stop-color:#69B9EB"/>
</linearGradient>
<path style="fill:url(#SVGID_00000057866779204222909440000018327991197209446843_);" d="M348.1,245.3h2.2v86h-2.2V245.3z"/>
<linearGradient id="SVGID_00000034800430730355785380000003562268232720177539_" gradientUnits="userSpaceOnUse" x1="337.4913" y1="205.2444" x2="296.4213" y2="195.8944" gradientTransform="matrix(1 0 0 -1 0 594)">
	<stop  offset="0" style="stop-color:#68E1FD"/>
	<stop  offset="1" style="stop-color:#69B9EB"/>
</linearGradient>
<path style="fill:url(#SVGID_00000034800430730355785380000003562268232720177539_);" d="M302.9,353.4h2.2v86h-2.2V353.4z"/>
<path class="st2" d="M222.3,452.7h-21.5V246.9c0-5.9,4.8-10.7,10.8-10.7c5.9,0,10.8,4.8,10.8,10.8l0,0V452.7z"/>
<path class="st2" d="M216.2,254.5c-4.9,3.8-12,2.9-15.8-2l-28.6-36.6c-3.8-4.9-2.9-12,2-15.8c4.9-3.8,12-3,15.8,1.9c0,0,0,0,0,0
	l28.6,36.6C222.1,243.5,221.2,250.6,216.2,254.5C216.3,254.4,216.3,254.4,216.2,254.5z M475.5,462.7c0,5.5-4.5,10-10,10H221.2
	c-11.1,0-20.1-9-20.1-20h264.3C471,452.6,475.5,457.1,475.5,462.7C475.5,462.6,475.5,462.7,475.5,462.7z"/>
<path class="st2" d="M475.5,462.7H221.2c-7.2,0-13.8-3.8-17.4-10h261.6C471,452.7,475.5,457.1,475.5,462.7
	C475.5,462.7,475.5,462.7,475.5,462.7z"/>
<linearGradient id="SVGID_00000121999500421735268200000001048553246053534381_" gradientUnits="userSpaceOnUse" x1="319.4" y1="245.785" x2="340.94" y2="245.785" gradientTransform="matrix(1 0 0 -1 -118.66 590.23)">
	<stop  offset="0" style="stop-color:#FFFFFF;stop-opacity:0"/>
	<stop  offset="9.000000e-02" style="stop-color:#FFFFFF;stop-opacity:5.000000e-02"/>
	<stop  offset="0.24" style="stop-color:#FFFFFF;stop-opacity:0.17"/>
	<stop  offset="0.45" style="stop-color:#FFFFFF;stop-opacity:0.37"/>
	<stop  offset="0.69" style="stop-color:#FFFFFF;stop-opacity:0.65"/>
	<stop  offset="0.98" style="stop-color:#FFFFFF"/>
	<stop  offset="0.98" style="stop-color:#FFFFFF"/>
</linearGradient>
<path style="fill:url(#SVGID_00000121999500421735268200000001048553246053534381_);" d="M222.3,452.7h-21.5V246.9
	c0-5.9,4.8-10.7,10.8-10.7c5.9,0,10.8,4.8,10.8,10.8V452.7z"/>
<linearGradient id="SVGID_00000109750365039392841180000002180457798265248155_" gradientUnits="userSpaceOnUse" x1="288.0902" y1="363.0164" x2="339.2882" y2="363.0164" gradientTransform="matrix(1 0 0 -1 -118.66 590.23)">
	<stop  offset="0" style="stop-color:#FFFFFF;stop-opacity:0"/>
	<stop  offset="9.000000e-02" style="stop-color:#FFFFFF;stop-opacity:5.000000e-02"/>
	<stop  offset="0.24" style="stop-color:#FFFFFF;stop-opacity:0.17"/>
	<stop  offset="0.45" style="stop-color:#FFFFFF;stop-opacity:0.37"/>
	<stop  offset="0.69" style="stop-color:#FFFFFF;stop-opacity:0.65"/>
	<stop  offset="0.98" style="stop-color:#FFFFFF"/>
	<stop  offset="0.98" style="stop-color:#FFFFFF"/>
</linearGradient>
<path style="fill:url(#SVGID_00000109750365039392841180000002180457798265248155_);" d="M216.2,254.5c-4.9,3.8-12,2.9-15.8-2
	l-28.6-36.6c-3.8-4.9-2.9-12,2-15.8c4.9-3.8,12-3,15.8,1.9c0,0,0,0,0,0l28.6,36.6C222.1,243.5,221.2,250.6,216.2,254.5
	C216.3,254.4,216.3,254.4,216.2,254.5z"/>
<linearGradient id="SVGID_00000113323224920658460740000004313869805788094343_" gradientUnits="userSpaceOnUse" x1="319.83" y1="127.575" x2="594.1802" y2="127.575" gradientTransform="matrix(1 0 0 -1 -118.66 590.23)">
	<stop  offset="0" style="stop-color:#FFFFFF;stop-opacity:0"/>
	<stop  offset="9.000000e-02" style="stop-color:#FFFFFF;stop-opacity:5.000000e-02"/>
	<stop  offset="0.24" style="stop-color:#FFFFFF;stop-opacity:0.17"/>
	<stop  offset="0.45" style="stop-color:#FFFFFF;stop-opacity:0.37"/>
	<stop  offset="0.69" style="stop-color:#FFFFFF;stop-opacity:0.65"/>
	<stop  offset="0.98" style="stop-color:#FFFFFF"/>
	<stop  offset="0.98" style="stop-color:#FFFFFF"/>
</linearGradient>
<path style="fill:url(#SVGID_00000113323224920658460740000004313869805788094343_);" d="M475.5,462.7c0,5.5-4.5,10-10,10H221.2
	c-11.1,0-20-9-20-20h264.3C471,452.6,475.5,457.1,475.5,462.7C475.5,462.6,475.5,462.7,475.5,462.7L475.5,462.7z"/>
<linearGradient id="SVGID_00000056421669229840689150000017598694376511011461_" gradientUnits="userSpaceOnUse" x1="322.52" y1="132.54" x2="594.1801" y2="132.54" gradientTransform="matrix(1 0 0 -1 -118.66 590.23)">
	<stop  offset="0" style="stop-color:#FFFFFF;stop-opacity:0"/>
	<stop  offset="9.000000e-02" style="stop-color:#FFFFFF;stop-opacity:5.000000e-02"/>
	<stop  offset="0.24" style="stop-color:#FFFFFF;stop-opacity:0.17"/>
	<stop  offset="0.45" style="stop-color:#FFFFFF;stop-opacity:0.37"/>
	<stop  offset="0.69" style="stop-color:#FFFFFF;stop-opacity:0.65"/>
	<stop  offset="0.98" style="stop-color:#FFFFFF"/>
	<stop  offset="0.98" style="stop-color:#FFFFFF"/>
</linearGradient>
<path style="fill:url(#SVGID_00000056421669229840689150000017598694376511011461_);" d="M475.5,462.7H221.2
	c-7.2,0-13.8-3.8-17.4-10h261.6C471,452.7,475.5,457.1,475.5,462.7C475.5,462.7,475.5,462.7,475.5,462.7L475.5,462.7z"/>
<linearGradient id="SVGID_00000030480033173803373960000014767110592598380707_" gradientUnits="userSpaceOnUse" x1="359.6137" y1="142.1695" x2="364.6837" y2="79.6395" gradientTransform="matrix(1 0 0 -1 -118.6574 590.2379)">
	<stop  offset="9.000000e-02" style="stop-color:#68E1FD"/>
	<stop  offset="0.2" style="stop-color:#65D5F1"/>
	<stop  offset="0.4" style="stop-color:#5DB7D2"/>
	<stop  offset="0.66" style="stop-color:#51859F"/>
	<stop  offset="0.97" style="stop-color:#404059"/>
	<stop  offset="0.99" style="stop-color:#3F3D56"/>
</linearGradient>
<circle style="fill:url(#SVGID_00000030480033173803373960000014767110592598380707_);" cx="244.8" cy="495.9" r="16.6"/>
<linearGradient id="SVGID_00000129169718442660824000000003960717859718112697_" gradientUnits="userSpaceOnUse" x1="244.7857" y1="99.2605" x2="246.3257" y2="80.3305" gradientTransform="matrix(1 0 0 -1 0 594)">
	<stop  offset="0" style="stop-color:#183866"/>
	<stop  offset="1" style="stop-color:#1A7FC1"/>
</linearGradient>
<circle style="fill:url(#SVGID_00000129169718442660824000000003960717859718112697_);" cx="244.9" cy="496.4" r="5"/>
<linearGradient id="SVGID_00000046334794342707631000000003486664106868047292_" gradientUnits="userSpaceOnUse" x1="238.3" y1="110.52" x2="260.01" y2="110.52" gradientTransform="matrix(1 0 0 -1 0 594)">
	<stop  offset="0" style="stop-color:#FFFFFF;stop-opacity:0"/>
	<stop  offset="9.000000e-02" style="stop-color:#FFFFFF;stop-opacity:5.000000e-02"/>
	<stop  offset="0.24" style="stop-color:#FFFFFF;stop-opacity:0.17"/>
	<stop  offset="0.45" style="stop-color:#FFFFFF;stop-opacity:0.37"/>
	<stop  offset="0.69" style="stop-color:#FFFFFF;stop-opacity:0.65"/>
	<stop  offset="0.98" style="stop-color:#FFFFFF"/>
	<stop  offset="0.98" style="stop-color:#FFFFFF"/>
</linearGradient>
<path style="fill:url(#SVGID_00000046334794342707631000000003486664106868047292_);" d="M249.1,494.2h-10.8v-21.5H260L249.1,494.2
	L249.1,494.2z"/>
<linearGradient id="SVGID_00000128465591368547718130000001488896784021024424_" gradientUnits="userSpaceOnUse" x1="3277.3135" y1="142.9075" x2="3282.3835" y2="80.3775" gradientTransform="matrix(-0.9954 -9.945512e-04 9.945512e-04 -0.9954 3694.1768 587.0136)">
	<stop  offset="9.000000e-02" style="stop-color:#68E1FD"/>
	<stop  offset="0.2" style="stop-color:#65D5F1"/>
	<stop  offset="0.4" style="stop-color:#5DB7D2"/>
	<stop  offset="0.66" style="stop-color:#51859F"/>
	<stop  offset="0.97" style="stop-color:#404059"/>
	<stop  offset="0.99" style="stop-color:#3F3D56"/>
</linearGradient>
<circle style="fill:url(#SVGID_00000128465591368547718130000001488896784021024424_);" cx="427.7" cy="495.9" r="16.6"/>
<linearGradient id="SVGID_00000077293732288043973370000012723451027922761614_" gradientUnits="userSpaceOnUse" x1="3267.0354" y1="95.4921" x2="3268.5754" y2="76.5621" gradientTransform="matrix(-1 0 0 -1 3694.72 590.23)">
	<stop  offset="0" style="stop-color:#183866"/>
	<stop  offset="1" style="stop-color:#1A7FC1"/>
</linearGradient>
<path style="fill:url(#SVGID_00000077293732288043973370000012723451027922761614_);" d="M422.6,496.4c0,2.8,2.2,5,5,5s5-2.2,5-5
	s-2.2-5-5-5S422.6,493.6,422.6,496.4L422.6,496.4z"/>
<path class="st2" d="M423.3,494.2h10.9v-21.5h-21.7L423.3,494.2z M249.1,494.2h-10.8v-21.5H260L249.1,494.2L249.1,494.2z"/>
<linearGradient id="SVGID_00000163784867835235317170000012398782341143726000_" gradientUnits="userSpaceOnUse" x1="234.8903" y1="115.4707" x2="256.5003" y2="107.9707" gradientTransform="matrix(1 0 0 -1 0 594)">
	<stop  offset="0" style="stop-color:#FFFFFF;stop-opacity:0"/>
	<stop  offset="9.000000e-02" style="stop-color:#FFFFFF;stop-opacity:5.000000e-02"/>
	<stop  offset="0.24" style="stop-color:#FFFFFF;stop-opacity:0.17"/>
	<stop  offset="0.45" style="stop-color:#FFFFFF;stop-opacity:0.37"/>
	<stop  offset="0.69" style="stop-color:#FFFFFF;stop-opacity:0.65"/>
	<stop  offset="0.98" style="stop-color:#FFFFFF"/>
	<stop  offset="0.98" style="stop-color:#FFFFFF"/>
</linearGradient>
<path style="fill:url(#SVGID_00000163784867835235317170000012398782341143726000_);" d="M249.1,494.2h-10.8v-21.5H260L249.1,494.2
	L249.1,494.2z"/>
<linearGradient id="SVGID_00000069380450186910482860000010002199729005749656_" gradientUnits="userSpaceOnUse" x1="412.48" y1="110.52" x2="434.19" y2="110.52" gradientTransform="matrix(1 0 0 -1 0 594)">
	<stop  offset="0" style="stop-color:#FFFFFF;stop-opacity:0"/>
	<stop  offset="9.000000e-02" style="stop-color:#FFFFFF;stop-opacity:5.000000e-02"/>
	<stop  offset="0.24" style="stop-color:#FFFFFF;stop-opacity:0.17"/>
	<stop  offset="0.45" style="stop-color:#FFFFFF;stop-opacity:0.37"/>
	<stop  offset="0.69" style="stop-color:#FFFFFF;stop-opacity:0.65"/>
	<stop  offset="0.98" style="stop-color:#FFFFFF"/>
	<stop  offset="0.98" style="stop-color:#FFFFFF"/>
</linearGradient>
<path style="fill:url(#SVGID_00000069380450186910482860000010002199729005749656_);" d="M423.3,494.2h10.9v-21.5h-21.7L423.3,494.2
	z"/>
<path class="st41" d="M176.4,286.2h24.8v103.2h-24.8V286.2z"/>
<linearGradient id="SVGID_00000123439422732793428280000013082064977101709495_" gradientUnits="userSpaceOnUse" x1="305.4075" y1="345.3425" x2="245.8125" y2="285.2475" gradientTransform="matrix(1 0 0 -1 0 594)">
	<stop  offset="0" style="stop-color:#183866"/>
	<stop  offset="1" style="stop-color:#1A7FC1"/>
</linearGradient>
<path style="opacity:0.2;fill:url(#SVGID_00000123439422732793428280000013082064977101709495_);enable-background:new    ;" d="
	M268.6,226h13.9v105.4h-13.9V226z"/>
<linearGradient id="SVGID_00000027565930666597756770000008792722575487784632_" gradientUnits="userSpaceOnUse" x1="267.7798" y1="235.5248" x2="202.4402" y2="169.6352" gradientTransform="matrix(1 0 0 -1 0 594)">
	<stop  offset="0" style="stop-color:#183866"/>
	<stop  offset="1" style="stop-color:#1A7FC1"/>
</linearGradient>
<path style="opacity:0.2;fill:url(#SVGID_00000027565930666597756770000008792722575487784632_);enable-background:new    ;" d="
	M228.1,333h13.9v116.9h-13.9V333z"/>
</svg>
